<svg xmlns="http://www.w3.org/2000/svg" viewBox="0 0 320 240" fill="none">
  <path d="M80 180V60c0-6.6 5.4-12 12-12h100c6.6 0 12 5.4 12 12v120" stroke="#c9a87c" stroke-width="2" fill="#f5f0e8" opacity="0.2"/>
  <path d="M92 48h100v132H92z" fill="#f5f0e8" opacity="0.15"/>
  <line x1="110" y1="80" x2="174" y2="80" stroke="#c9a87c" stroke-width="2" opacity="0.4" stroke-linecap="round"/>
  <line x1="110" y1="100" x2="154" y2="100" stroke="#c9a87c" stroke-width="2" opacity="0.3" stroke-linecap="round"/>
  <line x1="110" y1="120" x2="164" y2="120" stroke="#c9a87c" stroke-width="2" opacity="0.3" stroke-linecap="round"/>
  <line x1="110" y1="140" x2="144" y2="140" stroke="#c9a87c" stroke-width="2" opacity="0.3" stroke-linecap="round"/>
  <circle cx="220" cy="70" r="28" stroke="#c9a87c" stroke-width="2" fill="#f5f0e8" opacity="0.15"/>
  <line x1="220" y1="58" x2="220" y2="82" stroke="#c9a87c" stroke-width="2.5" stroke-linecap="round"/>
  <line x1="208" y1="70" x2="232" y2="70" stroke="#c9a87c" stroke-width="2.5" stroke-linecap="round"/>
  <rect x="240" y="130" width="45" height="55" rx="6" stroke="#c9a87c" stroke-width="1.5" fill="#f5f0e8" opacity="0.2" transform="rotate(12 262 157)"/>
  <rect x="35" y="110" width="40" height="50" rx="6" stroke="#c9a87c" stroke-width="1.5" fill="#f5f0e8" opacity="0.2" transform="rotate(-8 55 135)"/>
</svg>
